<?xml version="1.0" standalone="no"?>
<!DOCTYPE svg PUBLIC "-//W3C//DTD SVG 20010904//EN"
 "http://www.w3.org/TR/2001/REC-SVG-20010904/DTD/svg10.dtd">
<svg version="1.0" xmlns="http://www.w3.org/2000/svg"
 width="598.000000pt" height="675.000000pt" viewBox="0 0 598.000000 675.000000"
 preserveAspectRatio="xMidYMid meet">
<metadata>
Created by potrace 1.16, written by Peter Selinger 2001-2019
</metadata>
<g transform="translate(0.000000,675.000000) scale(0.100000,-0.100000)"
fill="#000000" stroke="none">
<path d="M0 3375 l0 -3375 2990 0 2990 0 0 3375 0 3375 -2990 0 -2990 0 0
-3375z m3274 1574 c18 -14 79 -125 178 -323 82 -165 151 -302 152 -303 1 -1
149 47 329 107 247 83 334 108 357 104 41 -9 80 -57 80 -99 0 -19 -47 -176
-105 -351 -58 -174 -105 -317 -103 -319 2 -1 136 -68 298 -149 330 -164 356
-183 347 -249 -3 -23 -15 -50 -29 -63 -13 -12 -156 -89 -318 -170 -162 -81
-297 -149 -299 -150 -2 -2 44 -147 103 -323 58 -176 106 -333 106 -349 0 -39
-32 -78 -75 -92 -31 -10 -59 -3 -362 98 l-328 109 -152 -302 c-99 -198 -161
-310 -179 -324 -36 -29 -95 -28 -128 2 -14 12 -91 153 -171 312 -80 160 -151
294 -158 299 -9 5 -125 -29 -333 -98 -176 -58 -325 -106 -332 -106 -46 0 -102
61 -102 110 0 12 48 166 106 341 59 176 105 321 103 323 -2 2 -139 71 -304
154 -165 83 -309 160 -319 171 -26 29 -26 103 0 132 10 11 154 88 319 171 165
83 302 152 304 154 2 2 -44 148 -103 324 -58 177 -106 333 -106 348 0 57 70
110 128 96 15 -4 161 -52 325 -106 164 -55 304 -97 312 -94 8 3 79 137 160
298 80 163 157 303 171 316 33 29 92 30 128 1z"/>
<path d="M3035 4155 c-289 -63 -524 -294 -601 -590 -25 -96 -25 -284 0 -380
71 -273 266 -481 535 -572 104 -34 289 -43 412 -19 310 62 565 329 618 647 58
349 -117 693 -431 848 -64 31 -132 56 -180 66 -93 18 -270 19 -353 0z m369
-214 c242 -86 407 -317 406 -569 -1 -176 -95 -364 -235 -469 -124 -94 -200
-118 -365 -118 -143 0 -194 13 -300 76 -136 81 -230 202 -275 354 -36 122 -20
305 37 420 27 53 94 142 138 183 70 65 194 127 290 146 61 11 246 -2 304 -23z"/>
</g>
</svg>
