<?xml version="1.0" standalone="no"?>
<!DOCTYPE svg PUBLIC "-//W3C//DTD SVG 20010904//EN"
 "http://www.w3.org/TR/2001/REC-SVG-20010904/DTD/svg10.dtd">
<svg version="1.0" xmlns="http://www.w3.org/2000/svg"
 width="128.000000pt" height="128.000000pt" viewBox="0 0 128.000000 128.000000"
 preserveAspectRatio="xMidYMid meet">

<g transform="translate(0.000000,128.000000) scale(0.100000,-0.100000)"
fill="#000000" stroke="none">
<path d="M611 1266 c-19 -23 -10 -136 12 -150 12 -8 22 -8 35 0 21 14 30 127
11 150 -15 18 -43 18 -58 0z"/>
<path d="M567 1060 c-222 -39 -383 -262 -348 -481 38 -233 257 -396 482 -360
186 30 327 171 360 359 26 148 -51 327 -177 411 -94 62 -215 89 -317 71z m218
-109 c69 -33 136 -96 165 -157 49 -105 49 -199 1 -300 -37 -77 -91 -129 -170
-167 -129 -61 -277 -34 -383 70 -135 132 -137 345 -5 481 105 109 255 137 392
73z"/>
<path d="M90 955 c-20 -24 -2 -50 55 -78 60 -29 95 -25 95 11 0 26 -11 37 -57
61 -49 25 -76 27 -93 6z"/>
<path d="M1105 953 c-66 -34 -84 -72 -45 -93 15 -8 31 -4 75 17 57 28 75 54
55 78 -16 19 -47 18 -85 -2z"/>
<path d="M143 402 c-56 -27 -73 -53 -53 -77 17 -21 42 -19 95 7 53 26 70 62
40 85 -23 16 -20 17 -82 -15z"/>
<path d="M1058 419 c-37 -21 -17 -59 49 -93 40 -20 67 -20 83 -1 20 24 2 50
-55 78 -31 15 -56 27 -58 27 -1 0 -10 -5 -19 -11z"/>
<path d="M611 156 c-19 -23 -10 -136 12 -150 12 -8 22 -8 35 0 21 14 30 127
11 150 -15 18 -43 18 -58 0z"/>
</g>
</svg>
