<?xml version="1.0" standalone="no"?>
<!DOCTYPE svg PUBLIC "-//W3C//DTD SVG 20010904//EN"
 "http://www.w3.org/TR/2001/REC-SVG-20010904/DTD/svg10.dtd">
<svg version="1.0" xmlns="http://www.w3.org/2000/svg"
 width="128.000000pt" height="128.000000pt" viewBox="0 0 128.000000 128.000000"
 preserveAspectRatio="xMidYMid meet">

<g transform="translate(0.000000,128.000000) scale(0.100000,-0.100000)"
fill="#000000" stroke="none">
<path d="M440 1268 c-129 -57 -199 -104 -270 -182 -102 -112 -152 -234 -166
-398 -21 -244 131 -505 356 -615 353 -173 751 -17 899 350 20 48 22 62 12 84
-10 21 -17 24 -44 20 -17 -2 -61 -17 -97 -33 -129 -55 -298 -40 -427 38 -205
124 -298 390 -209 598 39 90 43 120 20 137 -21 15 -40 16 -74 1z m-61 -179
c-17 -66 -15 -214 6 -284 55 -191 200 -344 387 -411 92 -32 235 -36 342 -9
l29 8 -19 -33 c-10 -19 -48 -63 -84 -100 -107 -108 -232 -160 -386 -161 -155
0 -285 53 -394 161 -108 109 -161 239 -161 394 1 182 78 335 225 443 32 24 61
42 63 39 2 -2 -1 -24 -8 -47z"/>
</g>
</svg>
