<?xml version="1.0" standalone="no"?>
<!DOCTYPE svg PUBLIC "-//W3C//DTD SVG 20010904//EN"
 "http://www.w3.org/TR/2001/REC-SVG-20010904/DTD/svg10.dtd">
<svg version="1.0" xmlns="http://www.w3.org/2000/svg"
 width="164.000000pt" height="227.000000pt" viewBox="0 0 164.000000 227.000000"
 preserveAspectRatio="xMidYMid meet">

<g transform="translate(0.000000,227.000000) scale(0.100000,-0.100000)"
fill="#000000" stroke="none">
<path d="M0 2244 l0 -25 300 2 c165 1 303 -1 307 -5 3 -3 -101 -6 -233 -7
-263 -1 -344 -5 -356 -17 -5 -5 -3 -32 3 -60 l12 -52 196 6 c108 3 240 7 294
8 53 2 97 2 97 0 0 -16 -78 -24 -248 -24 -108 -1 -230 -3 -270 -7 l-73 -5 3
-67 3 -66 83 -3 c78 -3 84 -1 89 18 5 18 8 19 22 7 9 -8 30 -18 46 -22 l30 -8
-30 -7 c-16 -3 -75 -7 -130 -9 -55 -1 -104 -6 -108 -10 -5 -5 -7 -24 -5 -42 3
-31 6 -34 39 -37 31 -3 36 -6 32 -23 -4 -16 0 -19 26 -19 33 0 42 -14 15 -24
-9 -3 -34 -7 -57 -7 -31 -2 -35 -3 -14 -6 35 -6 44 -28 25 -62 -29 -49 -30
-252 -3 -339 6 -19 3 -24 -14 -29 -11 -3 -21 -8 -21 -12 0 -12 17 -33 26 -32
5 1 9 -16 10 -36 0 -21 6 -74 14 -119 14 -85 9 -128 -14 -137 -10 -4 -13 -1
-9 9 3 7 1 14 -5 14 -5 0 -12 -9 -15 -20 -3 -13 0 -20 8 -20 10 0 14 -23 17
-90 3 -99 9 -91 -62 -94 l-25 -1 -3 -382 -2 -383 551 3 c540 2 552 2 563 22 6
11 14 22 17 25 3 3 8 13 12 22 3 10 16 18 27 18 12 0 20 7 20 16 0 9 13 29 30
44 35 32 51 69 43 99 -6 23 65 183 78 176 4 -3 10 -32 14 -64 l7 -60 39 -6
c21 -4 37 -11 33 -16 -3 -5 2 -9 10 -9 9 0 16 3 16 8 0 4 18 6 40 4 22 -2 40
-8 40 -14 0 -5 9 -7 19 -3 14 4 23 -1 32 -17 7 -13 20 -34 30 -47 19 -23 19
-16 19 323 l0 346 -24 0 c-14 0 -28 5 -31 10 -14 22 -21 7 -23 -46 -2 -73 -52
-181 -90 -195 -58 -22 -94 31 -73 108 6 21 11 64 11 96 0 63 8 69 46 32 18
-18 23 -31 18 -50 -9 -36 10 -31 31 10 27 49 13 84 -40 104 -51 19 -50 18 -34
38 9 11 10 14 2 9 -14 -8 -17 3 -5 19 18 25 51 16 76 -22 14 -21 26 -42 26
-48 0 -14 49 -35 82 -35 28 0 28 1 28 60 0 49 -3 61 -20 70 -25 14 -62 -4 -54
-25 4 -8 2 -15 -4 -15 -5 0 -13 7 -16 16 -10 27 -7 64 7 64 6 0 -1 7 -17 15
-22 12 -32 12 -43 4 -18 -16 -30 -2 -17 19 17 26 40 26 63 1 12 -13 21 -21 22
-18 0 2 3 40 5 84 6 101 7 105 44 105 27 0 30 3 30 30 0 28 -3 30 -35 30 l-36
0 3 143 3 142 33 3 32 3 0 320 0 319 -170 0 c-133 0 -171 -3 -177 -14 -5 -8
-32 -15 -70 -18 -56 -4 -63 -2 -63 14 0 18 -24 18 -580 18 l-580 -1 0 -25z
m983 -21 c-34 -2 -93 -2 -130 0 -37 2 -9 3 62 3 72 0 102 -1 68 -3z m312 -72
l0 -53 -35 -3 c-161 -13 -300 -16 -300 -7 0 7 36 12 97 14 l96 3 0 45 c0 25 5
48 11 53 6 4 38 6 71 5 l60 -3 0 -54z m-1190 29 c-3 -5 -12 -7 -20 -3 -21 7
-19 13 6 13 11 0 18 -4 14 -10z m79 -5 c3 -9 0 -15 -10 -15 -8 0 -22 7 -30 15
-14 13 -13 15 9 15 14 0 27 -7 31 -15z m68 3 c-9 -9 -15 -9 -24 0 -9 9 -7 12
12 12 19 0 21 -3 12 -12z m1046 -182 l3 -69 -33 7 c-45 9 -108 72 -108 108 l0
29 68 -3 67 -3 3 -69z m-838 40 c0 -3 -4 -8 -10 -11 -5 -3 -10 -1 -10 4 0 6 5
11 10 11 6 0 10 -2 10 -4z m-127 -56 c-3 -11 -9 -20 -15 -20 -5 0 -4 9 2 20 6
11 12 20 14 20 2 0 2 -9 -1 -20z m-141 -182 c-9 -9 -15 -9 -24 0 -9 9 -7 12
12 12 19 0 21 -3 12 -12z m862 -214 c20 -16 36 -34 36 -40 0 -5 8 -19 18 -30
9 -11 29 -44 43 -74 14 -30 36 -75 48 -100 12 -25 42 -70 66 -100 50 -61 66
-103 90 -235 20 -106 15 -177 -21 -283 -13 -40 -24 -81 -24 -91 0 -11 -11 -42
-25 -69 -14 -28 -25 -54 -25 -58 -1 -12 -68 -84 -79 -84 -5 0 -11 9 -14 21 -4
17 -10 19 -29 14 -13 -4 -24 -12 -26 -16 -2 -5 -8 -9 -13 -9 -6 0 -8 4 -4 9 3
5 1 13 -5 16 -6 4 -10 28 -9 55 2 40 -3 54 -27 86 -17 22 -38 52 -48 68 -21
33 -65 76 -77 76 -15 0 -10 -27 5 -33 8 -3 17 -24 21 -47 6 -34 4 -44 -12 -55
-24 -19 -73 -19 -73 0 0 7 -8 19 -17 25 -17 10 -17 10 0 20 34 21 19 38 -35
42 -38 2 -58 -2 -72 -14 -20 -15 -24 -15 -67 10 l-46 26 -28 -22 c-15 -12 -31
-19 -36 -16 -17 10 -9 51 15 73 14 13 26 38 29 59 2 20 14 73 26 116 11 44 21
87 21 97 0 9 6 19 14 22 15 6 32 64 22 74 -3 3 -12 1 -19 -5 -10 -9 -19 -7
-38 5 -13 9 -27 21 -30 26 -4 5 -64 13 -135 19 -71 5 -130 11 -133 14 -13 12
24 58 59 72 21 9 41 26 44 36 6 22 -10 103 -29 150 -7 17 -10 37 -8 44 7 18
60 43 102 48 114 14 230 42 273 66 26 14 132 27 194 23 28 -1 53 -12 78 -31z
m-811 -557 c7 4 4 -5 -5 -19 -11 -17 -14 -29 -8 -33 6 -3 10 -18 10 -34 0 -23
8 -31 59 -54 63 -29 133 -34 221 -17 25 5 48 5 52 2 4 -4 -5 -32 -21 -63 -15
-31 -33 -70 -39 -87 -21 -61 -118 -79 -198 -37 -46 24 -98 37 -64 15 12 -7 12
-12 3 -21 -10 -10 -15 -6 -23 15 -5 15 -10 35 -10 45 0 9 -5 22 -11 28 -13 13
-7 255 7 288 8 18 9 17 12 -8 2 -18 7 -25 15 -20z m167 -57 c0 -5 -4 -10 -10
-10 -5 0 -10 5 -10 10 0 6 5 10 10 10 6 0 10 -4 10 -10z m-347 -307 c-7 -2
-21 -2 -30 0 -10 3 -5 5 12 5 17 0 24 -2 18 -5z m117 -7 c0 -8 -7 -17 -16 -20
-8 -3 -12 -2 -9 4 3 6 -2 10 -12 11 -16 0 -16 1 2 9 29 12 35 12 35 -4z m10
-50 c20 -25 8 -61 -21 -64 -25 -3 -27 0 -31 37 -3 36 -1 41 18 41 12 0 27 -7
34 -14z m723 -36 c7 -6 21 -17 32 -25 18 -13 14 -14 -41 -8 -44 4 -75 1 -112
-11 -29 -10 -71 -16 -99 -14 l-48 3 40 8 c85 16 180 40 190 48 12 12 23 11 38
-1z m-836 -76 c-3 -3 -12 -4 -19 -1 -8 3 -5 6 6 6 11 1 17 -2 13 -5z m793 -13
c0 -15 -19 -23 -38 -16 -14 5 -14 7 -2 15 19 12 40 13 40 1z m-73 -17 c-3 -3
-12 -4 -19 -1 -8 3 -5 6 6 6 11 1 17 -2 13 -5z m135 -38 c-3 -17 -1 -17 24 3
32 25 50 27 58 5 9 -22 1 -45 -41 -132 -40 -82 -80 -117 -127 -114 -46 4 -66
12 -66 28 0 8 -7 14 -15 14 -8 0 -15 5 -15 11 0 5 5 7 11 4 6 -4 29 2 52 13
23 12 49 23 58 26 16 4 56 102 47 112 -3 2 -22 -2 -44 -10 -60 -21 -190 -30
-225 -16 -16 7 -29 15 -29 19 0 4 42 12 93 19 50 6 115 18 142 26 63 17 81 15
77 -8z m213 -4 c-3 -3 -11 0 -18 7 -9 10 -8 11 6 5 10 -3 15 -9 12 -12z
m-1021 -13 c-6 -11 -54 -12 -54 -1 0 4 13 7 30 8 16 1 27 -3 24 -7z m-77 -5
c-3 -3 -12 -4 -19 -1 -8 3 -5 6 6 6 11 1 17 -2 13 -5z m623 -204 c0 -5 -7 -10
-15 -10 -8 0 -15 5 -15 10 0 6 7 10 15 10 8 0 15 -4 15 -10z"/>
<path d="M980 1210 c-103 -10 -198 -44 -232 -81 -16 -17 -28 -34 -28 -38 0 -4
14 -18 30 -31 17 -13 30 -32 30 -42 0 -21 28 -49 74 -74 38 -21 184 -31 214
-15 28 15 29 35 2 26 -11 -3 -20 -2 -20 4 0 5 15 15 34 21 19 6 37 17 40 25 2
7 20 15 38 17 30 3 33 6 36 39 2 25 -3 40 -18 54 -25 23 -26 35 -1 28 36 -9
37 38 1 57 -27 14 -116 19 -200 10z m94 -185 c-4 -8 -8 -15 -10 -15 -2 0 -4 7
-4 15 0 8 4 15 10 15 5 0 7 -7 4 -15z"/>
<path d="M1170 665 c-20 -24 2 -41 24 -20 16 16 14 35 -3 35 -5 0 -14 -7 -21
-15z"/>
<path d="M260 740 c0 -19 11 -26 23 -14 8 8 -3 34 -14 34 -5 0 -9 -9 -9 -20z"/>
<path d="M3 2015 c0 -27 2 -38 4 -22 2 15 2 37 0 50 -2 12 -4 0 -4 -28z"/>
<path d="M2 1880 c0 -14 2 -19 5 -12 2 6 2 18 0 25 -3 6 -5 1 -5 -13z"/>
<path d="M1 1824 c0 -11 3 -14 6 -6 3 7 2 16 -1 19 -3 4 -6 -2 -5 -13z"/>
<path d="M1391 249 c-17 -48 -13 -87 10 -119 18 -23 21 -38 17 -79 l-5 -51
113 0 114 0 0 39 c0 34 -5 42 -32 59 -18 11 -49 23 -68 26 -47 9 -81 38 -78
67 2 18 -4 26 -29 34 -26 9 -30 14 -21 23 9 9 9 15 1 23 -7 7 -14 1 -22 -22z"/>
</g>
</svg>
